<?xml version="1.0" encoding="utf-8"?>
<!-- Generator: Adobe Illustrator 24.1.3, SVG Export Plug-In . SVG Version: 6.00 Build 0)  -->
<svg version="1.1" id="Capa_1" xmlns="http://www.w3.org/2000/svg" xmlns:xlink="http://www.w3.org/1999/xlink" x="0px" y="0px"
	 viewBox="0 0 206 36" style="enable-background:new 0 0 206 36;" xml:space="preserve">
<style type="text/css">
	.st0{fill:#603E85;}
	.st1{fill:#FFAA40;}
</style>
<path class="st0" d="M20.4,27h11.1c0.4,0,0.7-0.3,0.7-0.7v-2.4c0-0.4-0.3-0.7-0.7-0.7h-7.6V9.5c0-0.4-0.3-0.7-0.7-0.7h-2.8
	c-0.4,0-0.7,0.3-0.7,0.7v16.9C19.7,26.7,20,27,20.4,27z M33.5,27h3c0.4,0,0.6-0.2,0.8-0.5l0.8-2h7.1l0.8,2c0.1,0.4,0.4,0.5,0.8,0.5
	h3c0.5,0,0.7-0.3,0.5-0.8L43.3,9.3c-0.1-0.3-0.4-0.5-0.8-0.5h-2c-0.4,0-0.6,0.2-0.8,0.5l-6.8,16.9C32.7,26.7,33,27,33.5,27z
	 M39.4,20.7l2.1-5.4l2.1,5.4H39.4z M51.8,27h2.8c0.4,0,0.7-0.3,0.7-0.7V9.5c0-0.4-0.3-0.7-0.7-0.7h-2.8c-0.4,0-0.7,0.3-0.7,0.7v16.9
	C51.1,26.7,51.4,27,51.8,27z M57.7,27h2.8c0.4,0,0.7-0.3,0.7-0.7v-6.6l5.2,6.8c0.2,0.3,0.5,0.4,0.8,0.4h3.2c0.6,0,0.8-0.4,0.4-0.8
	l-6.2-8.3l5.9-8.3c0.3-0.4,0.1-0.8-0.4-0.8h-3.1c-0.3,0-0.6,0.1-0.8,0.4L61.2,16V9.5c0-0.4-0.3-0.7-0.7-0.7h-2.8
	c-0.4,0-0.7,0.3-0.7,0.7v16.9C57.1,26.7,57.3,27,57.7,27z M72.2,27h3c0.4,0,0.6-0.2,0.8-0.5l0.8-2h7.1l0.8,2
	c0.1,0.4,0.4,0.5,0.8,0.5h3c0.5,0,0.7-0.3,0.5-0.8L82,9.3c-0.1-0.3-0.4-0.5-0.8-0.5h-2c-0.4,0-0.6,0.2-0.8,0.5l-6.8,16.9
	C71.4,26.7,71.7,27,72.2,27z M78.1,20.7l2.1-5.4l2.1,5.4H78.1z"/>
<path class="st1" d="M95,27h2.8c0.4,0,0.7-0.3,0.7-0.7v-9.1l3.5,7.3c0.2,0.4,0.4,0.5,0.8,0.5h1.7c0.4,0,0.6-0.1,0.8-0.5l3.5-7.3v9.1
	c0,0.4,0.3,0.7,0.7,0.7h2.8c0.4,0,0.7-0.3,0.7-0.7V9.5c0-0.4-0.3-0.7-0.7-0.7h-2.9c-0.4,0-0.6,0.1-0.8,0.5l-4.8,9.7l-4.8-9.7
	c-0.2-0.3-0.4-0.5-0.8-0.5H95c-0.4,0-0.7,0.3-0.7,0.7v16.9C94.3,26.7,94.6,27,95,27z M120.6,27.3c2.1,0,3.9-0.8,5.1-2.1
	c0.3-0.3,0.2-0.6-0.2-0.9l-1.7-1.2c-0.3-0.3-0.6-0.2-0.9,0.1c-0.4,0.4-1.1,0.8-2.3,0.8c-1.3,0-2.4-0.8-2.7-2.3h8.1
	c0.4,0,0.7-0.3,0.7-0.7v-0.4c0-3.8-2.4-6.7-6.2-6.7c-3.9,0-6.4,2.9-6.4,6.7S116.7,27.3,120.6,27.3z M118,19.1
	c0.4-1.3,1.2-2.1,2.5-2.1c1.3,0,2.1,0.9,2.5,2.1H118z M128.7,27h2.6c0.4,0,0.7-0.3,0.7-0.7v-6.6c0-2.1,1.5-2.3,2-2.3
	c0.5,0,2.1,0.2,2.1,2.3v6.6c0,0.4,0.3,0.7,0.7,0.7h2.6c0.4,0,0.7-0.3,0.7-0.7v-6.6c0-2.1,1.5-2.3,2-2.3c0.5,0,2.1,0.2,2.1,2.3v6.6
	c0,0.4,0.3,0.7,0.7,0.7h2.6c0.4,0,0.7-0.3,0.7-0.7v-7.2c0-4.1-2.6-5.2-4.8-5.2c-1.4,0-3.1,0.4-4.1,1.8c-1-1.4-2.5-1.8-3.9-1.8
	c-1.1,0-2.4,0.4-3.3,1.4v-0.6c0-0.4-0.3-0.6-0.7-0.6h-2.6c-0.4,0-0.7,0.3-0.7,0.7v11.5C128,26.7,128.2,27,128.7,27z M157.3,27.2
	c3.5,0,6-2.8,6-6.7c0-3.9-2.6-6.6-6-6.6c-1.4,0-2.5,0.5-3.3,1.3V9.5c0-0.4-0.3-0.7-0.7-0.7h-2.6c-0.4,0-0.7,0.3-0.7,0.7v16.9
	c0,0.4,0.3,0.7,0.7,0.7h2.6c0.4,0,0.7-0.3,0.7-0.7v-0.4C154.7,26.7,155.8,27.2,157.3,27.2z M156.7,23.5c-1.7,0-2.7-1.2-2.7-2.9
	s1.1-2.9,2.7-2.9c1.7,0,2.8,1.2,2.8,2.9S158.4,23.5,156.7,23.5z M170.7,27.3c2.1,0,3.9-0.8,5.1-2.1c0.3-0.3,0.2-0.6-0.2-0.9
	l-1.7-1.2c-0.3-0.3-0.6-0.2-0.9,0.1c-0.4,0.4-1.1,0.8-2.3,0.8c-1.3,0-2.4-0.8-2.7-2.3h8.1c0.4,0,0.7-0.3,0.7-0.7v-0.4
	c0-3.8-2.4-6.7-6.2-6.7c-3.9,0-6.4,2.9-6.4,6.7S166.7,27.3,170.7,27.3z M168,19.1c0.4-1.3,1.2-2.1,2.5-2.1c1.3,0,2.1,0.9,2.5,2.1
	H168z M178.7,27h2.6c0.4,0,0.7-0.3,0.7-0.7v-4.9c0-3.2,2.5-3.7,3.9-3.8c0.4,0,0.7-0.3,0.7-0.7v-2.4c0-0.4-0.3-0.7-0.7-0.6
	c-1.5,0.2-2.9,0.9-3.8,2.5v-1.7c0-0.4-0.3-0.7-0.7-0.7h-2.6c-0.4,0-0.7,0.3-0.7,0.7v11.5C178,26.7,178.3,27,178.7,27z"/>
</svg>
